<svg width="19" height="17" viewBox="0 0 19 17" fill="none" xmlns="http://www.w3.org/2000/svg">
<path d="M3.70312 16.8721C2.75391 16.8721 2.03613 16.6289 1.5498 16.1426C1.06348 15.6621 0.820312 14.9531 0.820312 14.0156V3.31934C0.820312 2.37598 1.06348 1.66406 1.5498 1.18359C2.03613 0.703125 2.75391 0.462891 3.70312 0.462891H15.7969C16.752 0.462891 17.4697 0.703125 17.9502 1.18359C18.4365 1.66406 18.6797 2.37598 18.6797 3.31934V14.0156C18.6797 14.9531 18.4365 15.6621 17.9502 16.1426C17.4697 16.6289 16.752 16.8721 15.7969 16.8721H3.70312ZM3.68555 15.1406H15.8057C16.1748 15.1406 16.4561 15.0469 16.6494 14.8594C16.8486 14.666 16.9482 14.3789 16.9482 13.998V5.87695C16.9482 5.49609 16.8486 5.20898 16.6494 5.01562C16.4561 4.82227 16.1748 4.72559 15.8057 4.72559H3.68555C3.31641 4.72559 3.03516 4.82227 2.8418 5.01562C2.64844 5.20898 2.55176 5.49609 2.55176 5.87695V13.998C2.55176 14.3789 2.64844 14.666 2.8418 14.8594C3.03516 15.0469 3.31641 15.1406 3.68555 15.1406ZM8.0625 7.78418C7.9043 7.78418 7.79297 7.75488 7.72852 7.69629C7.66992 7.63184 7.64062 7.52344 7.64062 7.37109V6.85254C7.64062 6.69434 7.66992 6.58887 7.72852 6.53613C7.79297 6.47754 7.9043 6.44824 8.0625 6.44824H8.58105C8.7334 6.44824 8.8418 6.47754 8.90625 6.53613C8.9707 6.58887 9.00293 6.69434 9.00293 6.85254V7.37109C9.00293 7.52344 8.9707 7.63184 8.90625 7.69629C8.8418 7.75488 8.7334 7.78418 8.58105 7.78418H8.0625ZM10.9277 7.78418C10.7754 7.78418 10.667 7.75488 10.6025 7.69629C10.5439 7.63184 10.5146 7.52344 10.5146 7.37109V6.85254C10.5146 6.69434 10.5439 6.58887 10.6025 6.53613C10.667 6.47754 10.7754 6.44824 10.9277 6.44824H11.4463C11.6104 6.44824 11.7217 6.47754 11.7803 6.53613C11.8389 6.58887 11.8682 6.69434 11.8682 6.85254V7.37109C11.8682 7.52344 11.8389 7.63184 11.7803 7.69629C11.7217 7.75488 11.6104 7.78418 11.4463 7.78418H10.9277ZM13.8105 7.78418C13.6523 7.78418 13.541 7.75488 13.4766 7.69629C13.418 7.63184 13.3887 7.52344 13.3887 7.37109V6.85254C13.3887 6.69434 13.418 6.58887 13.4766 6.53613C13.541 6.47754 13.6523 6.44824 13.8105 6.44824H14.3203C14.4844 6.44824 14.5957 6.47754 14.6543 6.53613C14.7129 6.58887 14.7422 6.69434 14.7422 6.85254V7.37109C14.7422 7.52344 14.7129 7.63184 14.6543 7.69629C14.5957 7.75488 14.4844 7.78418 14.3203 7.78418H13.8105ZM5.18848 10.6055C5.03027 10.6055 4.91895 10.5762 4.85449 10.5176C4.7959 10.459 4.7666 10.3535 4.7666 10.2012V9.68262C4.7666 9.52441 4.7959 9.41602 4.85449 9.35742C4.91895 9.29883 5.03027 9.26953 5.18848 9.26953H5.70703C5.85938 9.26953 5.96484 9.29883 6.02344 9.35742C6.08789 9.41602 6.12012 9.52441 6.12012 9.68262V10.2012C6.12012 10.3535 6.08789 10.459 6.02344 10.5176C5.96484 10.5762 5.85938 10.6055 5.70703 10.6055H5.18848ZM8.0625 10.6055C7.9043 10.6055 7.79297 10.5762 7.72852 10.5176C7.66992 10.459 7.64062 10.3535 7.64062 10.2012V9.68262C7.64062 9.52441 7.66992 9.41602 7.72852 9.35742C7.79297 9.29883 7.9043 9.26953 8.0625 9.26953H8.58105C8.7334 9.26953 8.8418 9.29883 8.90625 9.35742C8.9707 9.41602 9.00293 9.52441 9.00293 9.68262V10.2012C9.00293 10.3535 8.9707 10.459 8.90625 10.5176C8.8418 10.5762 8.7334 10.6055 8.58105 10.6055H8.0625ZM10.9277 10.6055C10.7754 10.6055 10.667 10.5762 10.6025 10.5176C10.5439 10.459 10.5146 10.3535 10.5146 10.2012V9.68262C10.5146 9.52441 10.5439 9.41602 10.6025 9.35742C10.667 9.29883 10.7754 9.26953 10.9277 9.26953H11.4463C11.6104 9.26953 11.7217 9.29883 11.7803 9.35742C11.8389 9.41602 11.8682 9.52441 11.8682 9.68262V10.2012C11.8682 10.3535 11.8389 10.459 11.7803 10.5176C11.7217 10.5762 11.6104 10.6055 11.4463 10.6055H10.9277ZM13.8105 10.6055C13.6523 10.6055 13.541 10.5762 13.4766 10.5176C13.418 10.459 13.3887 10.3535 13.3887 10.2012V9.68262C13.3887 9.52441 13.418 9.41602 13.4766 9.35742C13.541 9.29883 13.6523 9.26953 13.8105 9.26953H14.3203C14.4844 9.26953 14.5957 9.29883 14.6543 9.35742C14.7129 9.41602 14.7422 9.52441 14.7422 9.68262V10.2012C14.7422 10.3535 14.7129 10.459 14.6543 10.5176C14.5957 10.5762 14.4844 10.6055 14.3203 10.6055H13.8105ZM5.18848 13.4355C5.03027 13.4355 4.91895 13.4092 4.85449 13.3564C4.7959 13.2979 4.7666 13.1865 4.7666 13.0225V12.5127C4.7666 12.3545 4.7959 12.2461 4.85449 12.1875C4.91895 12.1289 5.03027 12.0996 5.18848 12.0996H5.70703C5.85938 12.0996 5.96484 12.1289 6.02344 12.1875C6.08789 12.2461 6.12012 12.3545 6.12012 12.5127V13.0225C6.12012 13.1865 6.08789 13.2979 6.02344 13.3564C5.96484 13.4092 5.85938 13.4355 5.70703 13.4355H5.18848ZM8.0625 13.4355C7.9043 13.4355 7.79297 13.4092 7.72852 13.3564C7.66992 13.2979 7.64062 13.1865 7.64062 13.0225V12.5127C7.64062 12.3545 7.66992 12.2461 7.72852 12.1875C7.79297 12.1289 7.9043 12.0996 8.0625 12.0996H8.58105C8.7334 12.0996 8.8418 12.1289 8.90625 12.1875C8.9707 12.2461 9.00293 12.3545 9.00293 12.5127V13.0225C9.00293 13.1865 8.9707 13.2979 8.90625 13.3564C8.8418 13.4092 8.7334 13.4355 8.58105 13.4355H8.0625ZM10.9277 13.4355C10.7754 13.4355 10.667 13.4092 10.6025 13.3564C10.5439 13.2979 10.5146 13.1865 10.5146 13.0225V12.5127C10.5146 12.3545 10.5439 12.2461 10.6025 12.1875C10.667 12.1289 10.7754 12.0996 10.9277 12.0996H11.4463C11.6104 12.0996 11.7217 12.1289 11.7803 12.1875C11.8389 12.2461 11.8682 12.3545 11.8682 12.5127V13.0225C11.8682 13.1865 11.8389 13.2979 11.7803 13.3564C11.7217 13.4092 11.6104 13.4355 11.4463 13.4355H10.9277Z" fill="#0E8881"/>
</svg>
